<?xml version="1.0" encoding="utf-8"?><!-- Uploaded to: SVG Repo, www.svgrepo.com, Generator: SVG Repo Mixer Tools -->
<svg width="800px" height="800px" viewBox="0 0 24 24" xmlns="http://www.w3.org/2000/svg" fill="none"><path fill="#000000" fill-rule="evenodd" d="M11 2a3 3 0 0 0-3 3v14a3 3 0 0 0 3 3h6a3 3 0 0 0 3-3V5a3 3 0 0 0-3-3h-6zm1.293 6.293a1 1 0 0 1 1.414 0l3 3a1 1 0 0 1 0 1.414l-3 3a1 1 0 0 1-1.414-1.414L13.586 13H5a1 1 0 1 1 0-2h8.586l-1.293-1.293a1 1 0 0 1 0-1.414z" clip-rule="evenodd"/></svg>